<?xml version="1.0" encoding="UTF-8" standalone="no"?>
<svg
   xmlns:dc="http://purl.org/dc/elements/1.1/"
   xmlns:cc="http://creativecommons.org/ns#"
   xmlns:rdf="http://www.w3.org/1999/02/22-rdf-syntax-ns#"
   xmlns:svg="http://www.w3.org/2000/svg"
   xmlns="http://www.w3.org/2000/svg"
   xmlns:sodipodi="http://sodipodi.sourceforge.net/DTD/sodipodi-0.dtd"
   xmlns:inkscape="http://www.inkscape.org/namespaces/inkscape"
   inkscape:version="1.1-dev (ddb55ca, 2020-02-02)"
   sodipodi:docname="pointing.svg"
   id="svg216"
   version="1.1"
   viewBox="0 0 1600 1200"
   height="1200px"
   width="1600px">
  <metadata
     id="metadata222">
    <rdf:RDF>
      <cc:Work
         rdf:about="">
        <dc:format>image/svg+xml</dc:format>
        <dc:type
           rdf:resource="http://purl.org/dc/dcmitype/StillImage" />
      </cc:Work>
    </rdf:RDF>
  </metadata>
  <defs
     id="defs220" />
  <sodipodi:namedview
     inkscape:current-layer="g14"
     inkscape:window-maximized="0"
     inkscape:window-y="25"
     inkscape:window-x="0"
     inkscape:cy="600"
     inkscape:cx="800"
     inkscape:zoom="0.48666667"
     showgrid="false"
     id="namedview218"
     inkscape:window-height="791"
     inkscape:window-width="1410"
     inkscape:pageshadow="2"
     inkscape:pageopacity="0"
     guidetolerance="10"
     gridtolerance="10"
     objecttolerance="10"
     borderopacity="1"
     bordercolor="#666666"
     pagecolor="#ffffff" />
  <title
     id="title10">pointing</title>
  <g
     transform="matrix(3.7241314,0,0,3.4135583,503.67575,351.80435)"
     id="g14">
    <path
       inkscape:connector-curvature="0"
       style="fill:#008080;stroke-width:2.0745"
       id="path10"
       d="m 238.25904,103.56078 c 0,-72.643449 -67.16978,-131.893631 -149.431198,-131.893631 -82.261409,0 -149.366606,59.250182 -149.366606,131.893631 0,72.64347 67.105197,131.89364 149.366606,131.89364 82.282948,0 149.388138,-59.25017 149.388138,-131.89364 z"
       fill="#8dc63f" />
    <path
       style="stroke-width:2.08139"
       inkscape:connector-curvature="0"
       id="path12"
       d="m 15.400395,160.83669 c 0.854765,0 1.709531,-0.223 2.583723,-0.223 h 1.359854 c 1.068457,0 2.117488,0 3.147092,0.223 0.854766,0 1.728958,0.223 2.564297,0.3122 0.71878,0.223 1.418134,0.2676 2.117488,0.42372 0.543941,0.223 1.068457,0.2899 1.612398,0.4237 -0.291397,-0.69132 -0.602221,-1.36032 -0.951898,-1.96244 -0.466236,-0.78053 -0.990751,-1.49416 -1.515266,-2.07396 -0.407956,-0.42372 -0.854766,-0.78052 -1.301575,-1.02583 -0.194265,-0.22301 -0.38853,-0.22301 -0.563368,-0.31221 -1.612399,-0.80284 -3.341357,-1.22654 -5.089741,-1.22654 -1.068457,0 -2.117488,0.223 -3.147092,0.4683 -0.6605,0.22303 -1.321001,0.44604 -1.962075,0.78054 -0.194265,0 -0.369104,0.22301 -0.543942,0.28991 -0.466236,0.24531 -0.913045,0.62441 -1.340428,1.07043 -0.951898,1.00352 -1.787237,2.38616 -2.428312,3.9918 1.068458,-0.3122 2.175768,-0.57982 3.321931,-0.80282 0.699353,-0.223 1.398707,-0.223 2.136914,-0.2899 z M 50.3098,205.50485 c -6.799272,-3.9026 -12.335822,-11.48482 -12.335822,-21.67622 0,-10.16908 -5.2063,-14.58461 -7.246081,-15.92264 -2.506018,-1.11502 -5.400565,-1.89555 -8.52823,-2.20777 -0.932472,0 -1.903796,-0.223 -2.855695,-0.223 H 18.08125 c -4.487519,0.223 -8.625362,1.33805 -11.830733,3.1667 -4.856623,3.70189 -4.42924,11.66321 -4.42924,11.66321 0,25.24432 16.531944,30.86409 31.237799,30.86409 6.488448,0 12.627219,-1.07044 16.823341,-2.07397 1.612399,-0.35681 1.903796,-2.85448 0.427383,-3.7019 z M 24.414287,151.26972 V 78.614233 72.414658 1.3202419 c 0,-2.6091724 -1.845517,-4.7277321 -4.118416,-4.7277321 -2.253474,0 -4.09899,2.1185597 -4.09899,4.7277321 V 150.7122 c 1.010177,-0.223 2.098061,-0.3345 3.147091,-0.3345 1.728958,0 3.457916,0.2899 5.070315,0.89202 z M 137.04901,115.94551 c 3.14709,-2.67608 3.8076,-7.80523 1.45699,-11.41794 L 104.39308,51.898077 C 97.147012,40.792362 82.674326,41.282976 73.641017,49.021296 L 45.394898,73.150579 28.338438,62.312472 v 18.687929 l 14.161912,9.031755 c 1.068458,0.669019 2.2729,1.003529 3.457916,1.003529 1.515266,0 3.011106,-0.535215 4.273828,-1.605646 L 66.317229,75.670551 V 95.964125 L 49.280196,150.5338 c -0.602221,1.82865 0.602221,3.7911 2.2729,3.7911 h 14.764133 v 42.2597 c 0,6.06577 4.273828,10.97191 9.557834,10.97191 5.303429,0 9.577243,-4.90614 9.577243,-10.97191 v -42.3043 h 4.604062 V 196.54 c 0,6.06577 4.293234,10.97191 9.577224,10.97191 5.284008,0 9.557828,-4.90614 9.557828,-10.97191 v -42.2597 h 14.76414 c 1.70953,0 2.87512,-1.94015 2.2729,-3.7911 L 109.19142,95.919523 V 86.59786 l 17.93066,27.6528 c 1.3987,2.16317 3.53562,3.2782 5.73081,3.2782 1.43756,0 2.91397,-0.49061 4.19612,-1.58335 z M 69.19235,39.989539 c 4.953755,0 10.412596,-3.166689 10.412596,-3.166689 -2.564293,-1.717149 -3.885295,-5.151446 -4.526369,-8.608045 2.700282,5.129147 7.362639,8.518842 12.666049,8.518842 5.28398,0 9.946324,-3.389695 12.646594,-8.518842 -0.641068,3.478899 -1.962064,6.890896 -4.526354,8.608045 0,0 5.458834,3.166689 10.412584,3.166689 3.20537,0 6.2359,-1.315737 7.42092,-5.731261 0.19427,-0.669021 0,-1.38264 -0.58279,-1.694849 -1.78724,-1.09273 -5.73082,-4.281721 -5.73082,-10.860407 0,-8.496543 1.84552,-34.25377 -19.640134,-34.25377 -21.505103,0 -19.659586,25.757227 -19.659586,34.25377 0,6.578686 -3.924151,9.767677 -5.711389,10.860407 -0.543941,0.33451 -0.796486,1.04813 -0.602221,1.694849 1.185016,4.393224 4.215549,5.731261 7.42092,5.731261 z M 180.19525,156.33197 H 158.53471 L 138.506,139.49498 c -1.96208,-1.65024 -4.70121,-1.18193 -6.11934,1.07044 -1.41814,2.25235 -1.01018,5.39675 0.95189,7.0247 l 10.35432,8.74185 h -6.8964 c -1.49584,0 -2.642,1.56103 -2.37003,3.23357 l 6.37189,42.57191 c 0.21369,1.31576 1.20444,2.27468 2.37003,2.27468 h 15.3275 15.54119 c 1.16559,0 2.17577,-0.95892 2.37004,-2.29698 l 6.15819,-42.57191 c 0.27197,-1.67254 -0.85476,-3.21127 -2.33118,-3.21127 z m -21.87423,14.87451 c -1.86494,0.33451 -3.5939,-1.13734 -3.86587,-3.25589 -0.19427,-0.82512 0,-1.62795 0.31082,-2.34157 0.48567,-1.09273 1.41814,-1.91785 2.54487,-2.09625 1.2433,-0.223 2.46717,0.3791 3.18595,1.47184 0.34968,0.51291 0.60222,1.11503 0.67993,1.80636 0.27197,2.09625 -0.99076,4.081 -2.8557,4.41551 z"
       fill="#ffffff" />
  </g>
</svg>
