<?xml version="1.0" encoding="UTF-8" standalone="no"?>
<svg
   xmlns:dc="http://purl.org/dc/elements/1.1/"
   xmlns:cc="http://creativecommons.org/ns#"
   xmlns:rdf="http://www.w3.org/1999/02/22-rdf-syntax-ns#"
   xmlns:svg="http://www.w3.org/2000/svg"
   xmlns="http://www.w3.org/2000/svg"
   xmlns:sodipodi="http://sodipodi.sourceforge.net/DTD/sodipodi-0.dtd"
   xmlns:inkscape="http://www.inkscape.org/namespaces/inkscape"
   inkscape:version="1.1-dev (ddb55ca, 2020-02-02)"
   sodipodi:docname="services.svg"
   x="0px"
   y="0px"
   version="1.1"
   viewBox="0 0 425.106 200.056"
   xml:space="preserve"
   style="enable-background:new 0 0 425.106 317.056"
   id="Layer_1"><defs
   id="defs123" /><sodipodi:namedview
   inkscape:bbox-nodes="false"
   inkscape:snap-bbox="true"
   inkscape:current-layer="g116"
   inkscape:window-maximized="0"
   inkscape:window-y="25"
   inkscape:window-x="0"
   inkscape:cy="147.9828"
   inkscape:cx="216.38063"
   inkscape:zoom="1.8419459"
   showgrid="false"
   id="namedview121"
   inkscape:window-height="791"
   inkscape:window-width="1440"
   inkscape:pageshadow="2"
   inkscape:pageopacity="0"
   guidetolerance="10"
   gridtolerance="10"
   objecttolerance="10"
   borderopacity="1"
   bordercolor="#666666"
   pagecolor="#ffffff" />
<g
   style="fill:#008080"
   id="g116">
	<path
   style="fill:#008080"
   id="path10"
   d="m415.93 100.74c2.181 0.144 3.979 0.263 5.219 0.347-1.7-0.17-3.46-0.26-5.22-0.35z" />
	<path
   style="fill:#008080"
   id="path12"
   d="m99.321 37.083c0.521-1.479 1.48-2.521 2-4-2.528-1.053-4.43 3.372-1.999 4z" />
	<path
   style="fill:#008080"
   id="path14"
   d="m111.32 45.083c-2.65-0.015-5.889 0.555-6-2 0.189-3.812 1.42-6.58 5-7 2.352 0.315 0.594 4.74 4 4 2.096-2.442 1.43-2.131 1-6-2.723 2.478-4.646-2.25-8-1-7.907 2.947-5.24 20.316 4 12z" />
	<path
   style="fill:#008080"
   id="path16"
   d="m120.32 39.083c-0.615-2.717-1.982-4.683-4-6 0.98 2.356 0.33 6.343 4 6z" />
	<path
   style="fill:#008080"
   id="path18"
   d="m102.32 38.083c0.521-1.479 1.48-2.521 2-4-2.53-1.053-4.43 3.372-2 4z" />
	<path
   style="fill:#008080"
   id="path20"
   d="m132.32 46.083v-4h-3c-0.28 2.612-0.34 5.004 3 4z" />
	<path
   style="fill:#008080"
   id="path22"
   d="m167.32 47.083c-1.043-4.013-18.35-4.591-20-1 2.09 2.973 13.35-0.086 20 1z" />
	<path
   style="fill:#008080"
   id="path24"
   d="m170.32 55.083c-0.43-3.236 1.316-8.649-2-9 0.15 4.037-2.48 7.802 2 9z" />
	<path
   style="fill:#008080"
   id="path26"
   d="m160.32 50.083c-2.914 4.086-6.613 7.387-9 12 4.021-0.312 3.961-4.707 9-4-4.79-5.113 4.43-4.895 0-8z" />
	<path
   style="fill:#008080"
   id="path28"
   d="m136.32 57.083c-1.05 5.803 4.34 0.416 0 0z" />
	<path
   style="fill:#008080"
   id="path30"
   d="m147.32 57.083c-0.18 2.82-4.752 1.247-4 5 2.42 0.003 6.39-3.501 4-5z" />
	<path
   style="fill:#008080"
   id="path32"
   d="m145.32 65.083c1.498-1.837 4.174-2.493 5-5-2.61 0.12-7.63 2.946-5 5z" />
	<path
   style="fill:#008080"
   id="path34"
   d="m350.32 65.083c2.834-0.167 4.168-1.833 7-2 0.29-3.804-7.28-0.606-7 2z" />
	<path
   style="fill:#008080"
   id="path36"
   d="m226.32 66.083c-0.73-1.589-8.852-4.238-9 0 3.82-1.41 7.28 2.611 9 0z" />
	<path
   style="fill:#008080"
   id="path38"
   d="m267.32 75.083c1.467-2.2-0.119-7.453 3-8 3.326 0.34 3.545 3.788 6 5 2.11-15.619-20.09-3.165-9 3z" />
	<path
   style="fill:#008080"
   id="path40"
   d="m355.32 66.083c1.721 0.054 2.564-0.77 3-2-1.57 0.095-3.47-0.134-3 2z" />
	<path
   style="fill:#008080"
   id="path42"
   d="m218.32 69.083c2.83 0.171 6.861-0.86 7 2-1.496 0.17-3.689-0.357-4 1 0.695 1.973 5.58-0.246 6 2-1.771 0.228-5.008-1.008-4 2 1.453 0.547 5.17-1.168 5 1-1.57 0.095-3.467-0.134-3 2 3.65-0.888 5.326 1.766 7 0-0.533-3.8-3.121-5.544-3-10-3.16 0.324-9.98-4.651-11 0z" />
	<path
   style="fill:#008080"
   id="path44"
   d="m251.32 80.083c-1.305-2.901-0.811-5.752 2-7 2.551-1.095 5.146 3.416 5-1-6.26-6.003-16.96 6.958-7 8z" />
	<path
   style="fill:#008080"
   id="path46"
   d="m277.32 80.083c0.092-1.576 2.551-0.783 2-3-2.06-0.877-4.49 2.593-2 3z" />
	<path
   style="fill:#008080"
   id="path48"
   d="m269.32 78.083c-0.318 2.319 0.162 3.839 1 5 3.5 0.166 6.402-0.266 8-2-4.81 0.809-3.61-4.388-9-3z" />
	<path
   style="fill:#008080"
   id="path50"
   d="m232.32 82.083c-1.869-0.798-3.662-1.671-6-2 0.19 2.745 5.58 5.389 6 2z" />
	<path
   style="fill:#008080"
   id="path52"
   d="m251.32 88.083c3.414-0.253 4.805-2.528 9-2 0.412-4.079-1.023-6.309-5-6-1.936 2.967 1.336 4.933-2 6 1.168-4.101-6.953-4.018-7-1 2.64 0.025 6.27-0.933 5 3z" />
	<path
   style="fill:#008080"
   id="path54"
   d="m183.32 88.083v-4c-2.162-2.044-6.219-0.344-7 2 0.85 2.151 3.68 2.318 7 2z" />
	<path
   style="fill:#008080"
   id="path56"
   d="m251.32 107.08c2.924-1.613-1.594-5.155 1-6 4.623 2.92 18.508 2.363 21-3-3.205-0.919-13.439 4.34-19 1 4.492-5.468 20.178-4.829 25-4-0.262-5.405-5.766-5.567-9-8 0.068 3.491-1.516 7.062-7 5v-4c-5.406 2.327-6.387 9.548-15 6-0.484 1.182-1.066 2.267-2 3-0.52 5.52 2.15 7.86 5 10z" />
	<path
   style="fill:#008080"
   id="path58"
   d="m182.32 90.083c-0.904-2.415-5.645-0.426-6 1 0.73 0.817 6.92 2.682 6-1z" />
	<path
   style="fill:#008080"
   id="path60"
   d="m182.32 93.083h-5v2c1.89-0.444 6.03 1.36 5-2z" />
	<path
   style="fill:#008080"
   id="path62"
   d="m182.32 96.083h-4c0.842 3.345-0.17 5.491 2 9-2.75-0.219-2.066 7.133 2 6-0.512-5.645-0.562-7.125 1-12-5.31-0.113-0.8-0.186-1-2.997z" />
	<path
   style="fill:#008080"
   id="path64"
   d="m271.32 104.08c-2.512 3.9-9.613 1.155-14 1 1.03 6.52 19.9 3.79 14-1z" />
	<path
   style="fill:#008080"
   id="path66"
   d="m76.321 106.08c-3.141-0.474-4.086 1.247-5 3 3.141 0.48 4.086-1.24 5-3z" />
	<path
   style="fill:#008080"
   id="path68"
   d="m177.32 114.08c1.354 0.314 1.91 1.423 4 1 0.76-3.41-3.82-3.9-4-1z" />
	<path
   style="fill:#008080"
   id="path70"
   d="m365.32 112.08c-6.633 16.033-13.953 31.38-20 48 5.789-5.469 7.803-14.447 11-22 3.363-7.943 6.396-15.802 10-23-0.16-1.17 0.17-2.84-1-3z" />
	<path
   style="fill:#008080"
   id="path72"
   d="m67.321 133.08c-3.738-11.596-15.736-14.931-30-16 5.576 5.574 14.811 3.901 21 8 3.969 2.63 4.092 7.36 9 8z" />
	<path
   style="fill:#008080"
   id="path74"
   d="m208.32 129.08c-3.826 1.506-6.525 4.141-9 7 4.6-0.74 7.81-2.86 9-7z" />
	<path
   style="fill:#008080"
   id="path76"
   d="m203.32 138.08c3.471-0.863 5.549-3.118 8-5-2.3-1.32-6.78 2.09-8 5z" />
	<path
   style="fill:#008080"
   id="path78"
   d="m211.32 136.08c-2.717 0.615-4.684 1.982-6 4 3.26-0.08 5.39-1.28 6-4z" />
	<path
   style="fill:#008080"
   id="path80"
   d="m226.32 138.08c-5.14 2.42 3.44 2.59 0 0z" />
	<path
   style="fill:#008080"
   id="path82"
   d="m214.32 139.08c-2.375 0.625-4.654 1.344-5 4 2.38-0.62 4.66-1.34 5-4z" />
	<path
   style="fill:#008080"
   id="path84"
   d="m212.32 143.08c0.004 1.003-0.811 1.189-1 2 1.572-0.096 3.467 0.133 3-2h-2z" />
	<path
   style="fill:#008080"
   id="path86"
   d="m223.32 154.08c-1.453 0.547-5.168-1.169-5 1 1.45-0.54 5.17 1.17 5-1z" />
	<path
   style="fill:#008080"
   id="path88"
   d="m224.32 168.08c-3.307 2.025-7.846 2.82-8 8 2.62-2.07 8.88-5.74 8-8z" />
	<path
   style="fill:#008080"
   id="path90"
   d="m260.32 170.08h-3c0.113 1.22 0.299 2.367 2 2 5.15 6.691 11.729 11.09 18 16 5.275 4.129 10.123 7.968 15 11 3.51 2.182 8.592 7.546 13 5-16.23-10.1-32.45-20.21-45-34z" />
	<path
   style="fill:#008080"
   id="path92"
   d="m239.32 180.08c-3.156 0.177-5.963 0.702-6 4 2.72-0.61 4.68-1.98 6-4z" />
	<path
   style="fill:#008080"
   id="path94"
   d="m351.32 193.08c0.371 4.934 7.852 7.064 12 5 0.09-6.281-5.027-1.139-8-4 0.613-4.098 2.748-2.004 6-2-1.24-5.79-8.61-1.76-10 1z" />
	<path
   style="fill:#008080"
   id="path96"
   d="m215.32 205.08c-0.238-1.428-1.646-1.688-2-3 0.492-2.633 5.514-3.369 3-6-20.385 4.773 11.324 22.205 5 5-3.54-0.21-1.97 4.69-6 4z" />
	<path
   style="fill:#008080"
   id="path98"
   d="m361.32 208.08c4.082-0.586 6.791-2.543 8-6-3.45 1.22-6.03 3.31-8 6z" />
	<path
   style="fill:#008080"
   id="path100"
   d="m86.321 242.08c5.014 1.41 17.463 2.326 21-1 0.113-6.779-2.799-10.534-6-14-11.616-2.17-18.426 5.42-14.999 15z" />
	<path
   style="fill:#008080"
   id="path102"
   d="m157.32 71.083c-1.666-1.334-0.334-5.666-2-7-0.775-0.224-1.973-0.027-2-1-6.111-0.777-6.783 3.883-11 5-0.467-3.532 1.635-9.634-3-9 1.943 6.551-0.98 13.459 0 22 4.361 2.513 8.312 1.508 14 1-0.375-5.958-13.506 0.839-11-8 8.438-0.224 9.793 1.314 19 1 0.96-3.629-4.49-0.84-4-4zm-12-1c-2.486-0.681 1.479-3.045 2-4 3.3 1.489-1.7 2.822-2 4zm7 1c-2.486-0.15-0.291-3.386 0-4 2.49 0.15 0.29 3.386 0 4z" />
	<path
   inkscape:connector-curvature="0"
   style="fill:#008080;stroke-width:0.999173"
   id="path104"
   d="m 217.9958,298.63687 c 0,0 -4.269,8.53891 -4.269,10.13841 0,1.59947 4.80361,5.33594 4.80361,5.33594 0,0 3.61745,1.64144 18.57189,2.34878 18.54392,-0.049 38.9365,-0.15685 60.45731,-0.29273 22.42215,-0.45158 42.65985,-0.98807 42.65985,-0.98807 0,0 8.53997,-3.20195 8.53997,-8.53791 0,-5.33596 -2.13548,-10.13841 -2.13548,-10.13841 0,0 5.87084,-6.40295 5.87084,-12.27238 0,-5.86945 0,-30.41423 0,-30.41423 0,0 3.20375,-20.27782 10.67547,-30.94972 3.61545,-5.16411 7.47372,-10.57199 10.50059,-15.3295 -0.011,-0.27473 0.006,-0.57745 0.089,-0.9451 0.1389,0.065 0.26879,0.11888 0.3987,0.17383 2.96792,-4.73951 5.02246,-8.76071 5.02246,-11.11249 0,-4.80244 -3.73536,-16.54135 -9.60622,-18.67532 -5.87084,-2.13399 -8.53997,-1.067 -8.53997,-1.067 0,0 6.40549,-6.40195 14.94446,-7.46993 8.53897,-1.06799 13.8772,-11.2064 13.8772,-11.2064 0,0 7.47172,-1.60049 8.53897,-4.80245 1.06725,-3.20197 7.47272,-18.67634 7.47272,-18.67634 l -3.20175,-2.66748 5.24431,-6.03728 c 0,0 6.87214,-6.46289 9.25446,-9.83668 2.38232,-3.37382 7.34481,-11.70694 7.34481,-12.7989 0,-0.64439 -0.38373,-1.04201 -0.89937,-1.28379 -0.96731,-0.19682 -1.99759,-0.33168 -3.05984,-0.43559 -1.23913,-0.084 -3.03584,-0.20281 -5.21531,-0.34667 -0.89537,-0.059 -1.85368,-0.12188 -2.86599,-0.18882 -14.91245,-0.979078 -41.29282,-2.68846 -41.29282,-2.68846 l 4.58277,-11.765868 c 0,0 -0.31179,-9.577938 -1.38004,-11.712918 -1.06825,-2.13498 -9.60722,-17.075845 -14.41083,-18.676331 -0.45967,-0.152856 -1.02026,-0.313703 -1.65483,-0.477548 -0.17686,0.302713 -0.35074,0.606425 -0.54161,0.895153 -5.98577,-4.13409 -12.84292,-1.208856 -19.98588,-3.996219 -1.8347,0.377643 -9.84206,1.978128 -12.51017,4.113108 -2.66811,2.13498 -6.40447,1.06699 -6.40447,1.06699 0,0 -33.62424,-19.742322 -54.44054,-15.474359 -20.8163,4.267961 -38.96149,17.608342 -38.96149,17.608342 0,0 -14.40983,-9.071418 -24.55066,-9.071418 -10.14083,0 -13.87719,3.20197 -13.87719,3.20197 0,0 0,-14.940864 0,-17.608341 0,-2.667476 0,-6.936437 0,-6.936437 l -39.49511,-2.13398 c 0,0 -5.87186,-10.13841 -10.67546,-13.873875 -4.80361,-3.7354665 -24.05302,-12.26339836 -25.12227,-10.1284182 -1.06925,2.1349802 -3.73636,9.6049132 -3.73636,9.6049132 0,0 -12.807945,5.335951 -14.409814,12.273388 -1.601869,6.937437 0,18.142835 -0.533623,20.276817 -0.533622,2.133981 -2.670113,6.936438 -5.338229,8.536922 -2.668116,1.600486 -28.284024,21.343808 -28.284024,21.343808 0,0 -1.067246,-8.004427 -1.067246,-10.671904 0,-2.667477 1.067246,-19.743321 1.067246,-19.743321 0,0 14.409823,-16.542349 14.943444,-18.142835 0.533624,-1.600487 0,-9.071418 0,-9.071418 0,0 -4.802607,-3.20197 -7.471722,0 -2.669114,3.20197 -8.006346,6.936437 -8.006346,6.936437 L 57.845909,0.90154501 c 0,0 -4.269983,-2.66747621 -8.006344,0 -3.736361,2.66747649 -5.33723,6.93643759 -5.33723,6.93643759 0,0 -5.870854,-2.1349802 -7.472723,0.5334953 -1.601869,2.6684761 -1.601869,2.6684761 -1.601869,2.6684761 L 14.612446,3.5690215 c 0,0 -8.0053462,10.6719025 -10.1398387,16.0078555 C 2.3381148,24.912828 -0.331,41.987673 -0.331,45.189644 c 0,3.201972 14.410821,8.004427 14.410821,8.004427 0,0 3.73736,10.138408 5.338229,11.2054 1.600872,1.06699 7.471724,-0.533496 7.471724,-0.533496 0,0 4.270984,-16.007855 5.33823,-17.608341 1.067245,-1.600485 2.668116,-8.003428 2.668116,-8.003428 0,0 3.201739,5.334953 5.870852,6.936437 2.669116,1.601485 5.338232,2.134981 5.338232,2.134981 l -3.202738,49.62405 c 0,0 -6.403479,10.138406 -11.208086,17.608336 -4.804606,7.46993 -8.539967,16.54136 -9.607214,21.87732 -1.067247,5.33594 1.068247,17.07583 3.202738,25.61276 2.134494,8.53791 2.668116,18.14183 2.134494,21.3438 -0.533625,3.20198 -2.134494,46.42307 -2.134494,46.42307 v 51.22555 l 0.121914,9.13736 c 2.193451,0.10589 4.379907,0.21979 6.557369,0.34567 -2.693097,-43.36897 3.686396,-87.14256 0,-121.88469 -0.938336,-8.84563 -4.926521,-17.3406 -4.996471,-25.97542 C 26.837812,126.13207 35.40576,116.0506 41.962129,105.6984 53.073281,88.153996 61.050647,79.655037 76.937426,66.73526 83.998438,60.993693 94.660909,55.324057 96.923309,49.751328 c 2.221431,-5.470824 -1.286091,-12.639041 0,-18.982041 1.816718,-8.945537 6.749231,-12.635046 14.989401,-15.984876 0.89237,-3.105063 1.02828,-6.9644114 4.99648,-6.9933841 12.85592,2.1339814 21.0891,8.8895901 25.98165,18.9820421 -3.13678,-0.472553 -2.63914,2.688456 -4.99647,2.997165 -3.88426,-9.169327 -14.5837,-16.635264 -24.98236,-15.984878 -0.88837,3.498691 3.53851,1.528555 4.99647,1.998109 4.78763,1.540543 13.02181,6.181153 11.99154,9.990548 -1.66483,3.996221 -10.18981,1.133927 -14.98942,1.99811 3.50352,5.201079 13.53544,2.218901 17.98729,0 0.40772,3.446739 5.43018,5.832482 2.99789,8.991494 -1.97161,-4.742513 -12.36427,-5.770542 -12.99082,0.999054 2.96091,-0.703335 4.35192,-2.976184 8.99365,-1.998109 4.39488,4.100121 3.91523,13.161548 5.99576,16.983931 -2.34634,-0.318697 -3.75135,-1.578507 -6.99507,-0.999055 -3.25569,2.417713 -6.6283,5.439854 -11.99152,6.993385 -3.64742,1.056999 -9.74312,-2.210908 -10.99223,2.997163 -3.07583,-3.917293 -6.25158,-7.73668 -13.990122,-6.993384 3.122794,5.144134 11.260052,6.597758 14.989412,14.985823 2.6841,6.032292 7.84445,28.806745 6.99505,34.966925 -0.58758,4.26696 -5.60504,6.77259 -4.99646,10.98961 3.92723,0.33367 4.26797,-6.22313 7.99435,-2.99718 1.09523,2.5486 -3.41359,5.14014 0.99929,4.99529 7.73254,-2.18196 18.54191,4.06714 25.98166,1.99809 2.23642,-7.44994 -1.0133,-16.85306 0,-23.977311 2.98788,-2.0091 9.42934,-0.564466 13.99011,-0.999053 -1.46596,-6.656704 -10.46162,-0.62441 -15.9887,-1.998112 -3.68341,2.503632 0.78444,7.641776 -2.99789,8.991496 -5.81389,-0.51452 -13.78126,1.12394 -17.98729,-0.99905 -0.39472,-11.839805 -1.16318,-25.577808 -0.9993,-40.961253 4.72866,-0.601431 6.81719,-3.842365 9.99295,-5.994328 2.83199,0.762278 7.54566,2.94721 9.99294,0.999053 0.25182,-5.57972 -4.03215,-6.623733 -4.99648,-10.989601 3.32966,-3.000162 0.55661,-12.099553 4.99648,-13.986767 10.31472,2.970189 29.95583,0.419602 40.97106,2.997163 0.33976,8.917564 1.64383,17.47247 -1.99859,27.973535 -3.3996,-1.153909 -7.06302,-3.148021 -10.99223,-0.999055 -2.79303,2.869285 -1.89168,9.432076 -1.99859,14.985822 -4.05415,4.305925 -5.71896,14.17359 -5.99577,22.978259 -0.26382,8.368082 -0.58358,18.135852 2.99789,21.979202 5.03944,-7.63776 -0.79645,-23.49077 1.99859,-34.966913 1.05825,-4.341891 4.65671,-7.612798 5.99575,-10.989604 -0.23782,-3.611581 -2.32635,-12.261399 3.99718,-11.988657 3.19675,3.441745 0.4177,6.439907 0.99931,12.987713 9.64319,7.014363 8.00033,30.627031 6.99505,44.957461 -14.63966,-0.77126 -21.12209,2.78238 -29.97882,-1.99809 -3.11081,1.21883 -5.59007,3.07009 -9.99295,2.99715 -1.45798,5.20209 -0.59958,12.72096 -3.99718,15.98487 -12.02051,-1.96914 -25.13225,-2.8473 -36.97387,-4.99526 -5.519112,-8.62785 -8.439051,-21.66351 -10.992245,-31.96976 -0.853399,-3.447739 -0.743475,-8.792683 -3.997177,-10.989604 -3.474546,7.127257 3.309661,13.643084 1.998587,19.981094 -1.504937,7.27513 -9.561247,10.16438 -17.987295,11.98866 0.925346,3.91929 2.176461,3.7135 0.999295,7.99245 -4.058135,2.15894 -2.809017,8.25818 -4.996472,11.98865 -1.214142,2.06805 -3.825299,1.22583 -3.997177,3.99622 -0.587586,3.07509 -0.25582,7.07032 -3.997177,6.99338 2.773041,8.36709 0.09794,21.6705 0.999295,31.96976 3.196741,36.48948 -0.270811,66.86674 0.999292,109.89602 -3.90524,1.08998 -7.717549,2.27284 -11.991528,2.99718 0.11092,-47.26929 -1.99859,-91.28464 -1.99859,-141.8658 0,-8.47798 2.346344,-19.49455 -2.997882,-22.97825 -0.69451,45.74972 1.893662,113.53259 0.999295,166.84216 -5.117388,2.2089 -9.311424,5.34294 -14.989414,6.99338 v -15.98489 c -2.178462,-0.3157 -4.321948,-0.5315 -6.449445,-0.69734 l 0.304784,10.3552 c 0,0 1.60087,14.40738 3.735363,14.94088 1.270103,0.3167 5.750938,0.82322 9.17252,1.18186 42.616901,-0.16582 85.628511,0.51152 127.869691,0.91616 l 9.19449,0.037 v -22.94528 l 0.46867,-0.047 c -0.57158,-1.20486 -0.79643,-2.52861 -0.56458,-3.77741 -1.55892,-0.075 -3.16278,-0.35867 -4.83261,-0.9631 -2.01456,7.25214 -0.96231,16.03883 -0.99928,22.97825 -5.26928,0.84721 -9.7591,-0.41559 -16.988,0 v -9.99054 c 0.045,0.034 0.092,0.066 0.1349,0.10091 -0.10193,-1.63646 -0.18887,-3.27191 -0.19687,-4.91235 0,-0.1 0.025,-0.17785 0.061,-0.24577 0,-0.002 0,-0.004 -0.001,-0.006 -0.11792,-0.6404 -0.15689,-1.35972 -0.15089,-2.124 0,-0.041 -10e-4,-0.081 0,-0.12088 0.005,-0.35467 0.016,-0.71633 0.034,-1.08498 0.10192,-2.07604 0.36974,-4.31892 0.17288,-6.09624 -0.002,-0.016 -0.012,-0.027 -0.012,-0.044 -0.01,-0.10391 -0.018,-0.20982 -0.025,-0.3137 -0.008,-0.045 -0.008,-0.096 -0.016,-0.13888 l 0.004,0.002 c -0.27682,-3.22295 -0.46667,-6.44789 -0.47967,-9.68383 -0.002,-0.25576 0.15488,-0.40464 0.34676,-0.45858 0.054,-1.20186 0.17188,-2.46866 0.23084,-3.67752 0.003,-0.059 0.004,-0.11489 0.007,-0.17283 0.01,-0.22279 0.019,-0.44258 0.023,-0.65937 0.002,-0.1179 0,-0.22979 10e-4,-0.34669 9.9e-4,-0.15785 0.003,-0.3167 -10e-4,-0.47155 -0.003,-0.15386 -0.014,-0.30071 -0.022,-0.45056 -0.006,-0.10991 -0.009,-0.22479 -0.018,-0.3317 -0.021,-0.25376 -0.052,-0.49952 -0.092,-0.73331 0.021,-0.011 0.043,-0.016 0.064,-0.026 -0.01,-0.038 -0.023,-0.073 -0.023,-0.11788 v -3.82638 c 0,-0.003 0.001,-0.005 0.002,-0.007 -0.015,-0.007 -0.028,-0.012 -0.043,-0.019 1.74876,-4.24798 0.74546,-11.24536 0.99928,-16.98391 -6.25757,-0.45658 -3.76533,7.10026 -3.99716,10.9896 -1.0033,16.79209 0.57559,36.13381 0,51.95083 H 93.92343 c -3.778332,-1.21784 -4.293967,-5.69861 -6.995059,-7.99243 -8.620913,-1.03801 -15.514044,-3.8044 -19.985885,-8.99149 v -51.95085 c 4.769631,2.97219 5.277272,-1.13192 10.992236,-1.99811 -0.274806,-14.04572 8.827766,-21.95823 20.985177,-20.98016 2.954921,0.23679 5.459151,1.24683 6.995061,1.99811 3.78033,1.84426 4.56677,4.90136 6.99506,7.99245 0.68851,4.01719 -0.95634,5.7026 -0.99929,8.99149 17.84338,3.84037 41.1999,2.36575 53.01054,4.56668 6.49343,1.20986 4.85058,3.63756 4.94852,7.42199 -1.00928,9.24125 1.12719,25.96043 0.62955,38.8892 2.28238,-0.97907 2.70708,0.97307 5.0924,1.21284 l 0.56161,-41.19702 c 0,0 0.81343,-10.57499 -6.10169,-10.57499 -6.91513,0 -51.25881,-3.25392 -51.25881,-3.25392 0,0 -0.4057,-23.18206 -21.154045,-21.149 -20.748346,2.0331 -23.595335,14.64117 -23.595335,14.64117 v 8.54191 l -6.509401,2.84733 -2.033566,-85.0036 c 0,0 2.440278,-6.10122 2.440278,-7.32107 0,-1.21984 4.068126,-6.50783 4.068126,-6.50783 l 3.254701,-8.94755 c 0,0 2.847988,-7.32007 2.847988,-8.54091 0,-1.22086 5.69498,-4.06716 9.356394,-5.69461 3.661414,-1.62747 5.694977,-2.8473 5.694977,-2.8473 0,0 4.068126,15.86199 6.916123,17.48845 2.84798,1.62645 39.46012,6.50784 39.46012,6.50784 0,0 18.30707,-0.40662 26.44331,-3.25392 8.13627,-2.8473 10.98326,-8.1343 10.98326,-8.1343 l 15.05237,0.40661 c 0,0 1.62784,8.54091 2.84797,10.98161 1.22016,2.44069 6.10171,4.06716 6.10171,4.06716 0,0 1.62685,6.91444 4.88155,10.16838 3.25469,3.25391 6.10168,6.10122 6.10168,6.10122 l -4.87655,21.56959 c 0,0 -11.38996,8.1363 -12.20439,15.04876 -0.81441,6.91247 0.81343,17.48946 6.10171,21.96223 5.28825,4.47276 10.57753,6.10022 13.01779,11.38722 2.44029,5.287 5.69398,13.82891 4.06715,19.52254 -1.62686,5.69361 -4.88158,25.21614 -4.88158,25.21614 0,0 2.12151,8.95552 2.22944,10.08745 0.052,1.71238 -0.35376,2.41372 0.17188,4.31392 0.05,0.17982 0.27679,0.89316 0.21485,1.07098 l 2.16847,8.50197 z M 70.969642,18.761648 C 75.511432,26.300516 61.89605,31.187892 59.977405,38.742744 56.380944,28.807145 69.001031,26.458366 70.969642,18.761648 Z M 18.007049,49.732346 C 13.002583,47.409545 7.977132,45.107722 3.0176348,42.738963 2.7877972,26.523306 9.4540889,17.204122 16.008459,7.7720449 22.56483,7.5462585 25.571706,10.867116 29.99858,12.76732 c -1.758758,4.569676 -4.990477,7.663749 -6.995062,11.988658 0.710499,-4.083137 -2.768044,-7.168219 -3.997177,-11.988658 -4.269983,0.725314 -4.381904,5.609691 -6.995059,7.992437 2.572184,3.563629 4.314952,-5.45284 6.995059,-1.998109 3.290678,10.186363 -2.864975,17.184742 -3.997177,27.973533 4.838583,-3.911299 6.11868,-11.186416 8.993649,-16.98393 2.734069,-5.511785 4.857569,-12.067584 9.992941,-14.985822 -3.952207,13.030672 -12.506165,21.462695 -15.988705,34.966917 z m 4.996469,10.989604 c -7.396774,-3.738463 -1.395013,-13.065638 0.999295,-18.982041 2.775041,-6.853517 6.821183,-13.961792 8.993648,-18.982043 1.478956,-0.520506 2.519221,-1.477601 3.997177,-1.998109 0.06395,-4.597649 2.839994,-6.484863 3.997178,-9.990548 h 2.997882 C 36.673864,27.09976 26.210254,40.282288 23.003518,60.72195 Z m 13.99012,-27.973535 c 3.280682,3.379802 8.246175,5.077196 8.993647,10.989604 -4.018162,-2.643501 -9.170523,-4.151074 -8.993647,-10.989604 z m 18.98659,45.956521 c -1.192159,5.454839 -6.184631,8.22422 -7.994353,11.988657 -1.451974,-0.442581 0.101928,-0.87717 0,-1.998109 2.693098,-16.366516 -0.233835,-51.292472 0,-71.931945 0.06794,-5.947373 -0.915354,-13.6740638 6.995059,-12.9877132 2.907945,16.7141862 0,40.3088632 0,58.9442332 0,5.79252 2.071536,11.093504 0.999294,15.984877 z M 83.960465,311.48471 H 57.978816 c 4.703679,-3.26792 9.837052,-1.4866 15.988708,-0.99905 3.060837,-0.08 17.690505,-0.20981 9.992941,0.99905 z M 65.97317,297.49795 c 1.229133,0.43558 2.053551,1.27777 1.99859,2.99715 -5.414178,5.57673 -15.479068,6.50186 -26.980944,5.99434 5.514104,-5.80452 15.552014,-7.09329 24.982354,-8.99149 z m 79.94254,-161.84689 c 0.54261,-4.45278 0.98131,-9.00947 1.99859,-12.98772 2.48223,0.14987 4.14706,-0.5165 4.99646,-1.99811 4.95949,0.40763 -0.89237,3.41879 -0.99929,4.99529 5.59805,2.39672 12.38425,3.60558 20.98519,2.99716 -5.09641,6.25409 -18.80674,6.8635 -26.98095,6.99338 z m 31.97741,-10.98961 c -4.75864,0.66237 -14.77456,4.04917 -20.98518,0 2.94693,-3.67852 8.41406,-1.80829 12.99082,-1.99811 10.94728,-0.45555 22.54509,-1.73535 32.97672,0 -4.89655,4.0262 -15.55902,0.68937 -24.98236,1.99811 z m 15.98872,3.99623 c -0.46667,-2.13199 1.42898,-1.90321 2.99787,-1.99812 -0.4297,1.22884 -1.2791,2.05806 -2.99787,1.99812 z m 9.99292,-1.99812 c -1.58286,3.0801 -5.82189,3.5047 -7.99433,5.99434 -1.7088,-2.4277 3.65741,-6.29404 7.99433,-5.99434 z m 0,13.98678 c -4.06712,-0.16185 -6.3585,-2.2209 -7.99433,-6.9934 6.24956,-1.74433 10.79337,-5.19508 11.99151,-11.98864 -2.60214,-4.39084 -13.92016,-0.069 -17.98728,-2.99716 0.64952,-12.11255 2.68211,-39.835324 -8.99365,-45.956532 -3.57747,-22.068122 29.89689,-23.361899 40.97106,-12.987713 -1.00928,2.813338 -4.243,-0.27574 -5.99577,0 -0.16188,5.157121 8.84176,1.151909 9.99295,4.995274 12.65106,-12.169487 31.4138,-22.971268 57.95906,-17.982988 0.4257,1.905199 2.85498,1.808291 1.99859,4.995275 3.00587,1.007047 1.77176,-2.225894 1.99859,-3.996219 3.69838,-0.700338 2.49225,3.502686 3.99717,4.995274 1.35605,-0.309706 0.82943,-2.501633 0.99931,-3.996218 1.35604,0.309706 0.8294,2.501633 0.99928,3.996218 3.80233,1.46861 0.19686,-4.465775 3.99718,-2.997165 v 3.996221 c 3.35163,-1.654436 2.80102,-4.604645 2.99788,1.998109 4.21603,1.550532 -0.21885,-5.546753 3.99718,-3.99622 0.48966,3.153017 -1.79972,3.527664 -0.99929,6.993383 3.14778,-0.183824 1.2801,-5.380909 4.99647,-4.995272 0.72648,3.056108 -1.72378,2.938219 -0.99929,5.994328 2.63714,0.303712 2.57817,-2.086026 2.99788,-3.996219 4.88355,1.915187 -1.23313,3.829377 -0.99929,6.993383 4.02215,0.690347 2.45326,-4.20702 5.99575,-3.99622 2.57218,2.477656 -0.67552,3.558634 -1.99857,4.995274 5.37518,2.274848 -5.51712,10.654921 0.99928,13.986769 0.078,-6.598758 6.73125,-11.896745 5.99576,-15.984878 1.1322,-2.19892 6.59335,-0.06894 6.99506,-2.997165 3.06384,0.981073 -1.14719,2.665479 -0.99929,3.99622 5.62702,-1.03502 6.12866,-7.194194 12.99082,-6.993383 -0.82542,2.50463 -3.49953,3.16001 -4.99648,4.995274 4.36393,1.670419 6.8002,-7.16722 14.98943,-4.995274 0.13689,3.465722 -5.06243,1.599487 -4.99648,4.995274 1.79574,2.051059 5.49013,-2.446686 7.99436,-2.997165 4.37791,0.952099 8.30512,2.354771 10.99223,4.995274 -1.00328,1.993115 -4.41888,1.576508 -3.99718,4.995275 1.63386,2.626515 3.90724,-5.861456 6.99507,-1.99811 1.22613,4.556689 -3.50353,3.157013 -3.99718,5.994328 1.45198,2.677468 5.31225,-3.653542 6.99506,-0.999054 -0.77846,2.883271 -4.83258,2.49364 -6.99506,3.996219 2.15648,3.3828 6.91912,-2.048064 8.99365,0.999054 -0.02,2.976185 -4.71367,1.281788 -5.99577,2.997165 0.23982,2.957203 3.71638,1.373701 4.99648,0 3.50952,1.705387 -2.33037,2.188929 -2.99789,2.997164 4.77763,2.782369 1.38801,6.795572 -0.99929,12.987714 -15.24325,-4.992278 -28.12614,-16.824084 -42.96966,-18.982043 -7.07099,10.912676 -11.27502,24.692639 -16.98799,36.965039 -5.65601,-4.00222 -18.46396,-0.8542 -24.98236,-3.99623 0.63255,-5.36193 3.99318,-7.99744 4.99648,-12.987713 11.42393,-1.120939 26.69414,-7.177209 19.98588,-19.981096 -10.28774,-2.520615 -12.97883,6.393952 -9.99295,13.986768 -3.41958,0.911138 -6.19062,2.468664 -9.99293,2.997163 0.10492,-10.10344 -2.50423,-33.0827 -11.99154,-38.963135 -7.88742,-4.889376 -21.96349,-4.812448 -24.98236,4.995272 -13.05278,0.765277 -17.54861,14.870933 -15.98869,26.97448 -3.76336,-0.43259 -4.54979,2.111004 -5.99577,3.99622 0.055,4.941326 2.80502,7.188198 5.99577,8.991493 -0.60458,6.598758 2.60514,9.383118 8.99364,8.991508 0.057,3.60658 2.49223,4.83642 2.99787,7.99242 -8.45503,5.20109 -16.99799,10.31326 -25.98164,14.98583 -1.11022,8.8786 -5.43516,14.54624 -5.99577,23.97731 -5.27628,-2.2179 -9.91299,-9.84068 -9.99295,-13.98676 z m 119.91531,40.96123 c 7.6566,-1.67041 18.55889,-0.096 24.98236,-2.99715 -4.45185,4.54671 -10.92029,11.25935 -6.99506,20.98016 -2.87697,-0.11991 -1.73277,-4.26198 -4.99648,-3.99623 -1.47795,-0.032 0.18788,5.02624 1.99859,4.99527 -3.44855,3.05812 -4.5128,-4.77048 -5.99575,-6.99338 -2.78304,-1.60147 -2.76405,4.31392 -0.9993,3.99622 -5.04944,3.10307 -1.10122,-10.4691 -6.99506,-5.99433 -2.7071,-0.90314 2.28538,-2.23488 1.99859,-3.99622 -4.21003,0.45258 -4.60076,4.72453 -7.99436,5.99433 -0.5406,3.53765 3.53851,2.45667 2.99788,5.99434 -4.87155,-1.12395 -4.10109,-7.88854 -3.99717,-13.98678 2.47125,1.40068 1.76475,3.44175 0.99929,5.99433 5.15635,-1.88821 0.91935,-7.01337 4.99647,-9.99056 z m 8.99366,59.9433 c -2.46328,0.13088 -4.81461,0.14985 -5.99577,-0.99904 -0.004,-3.66855 3.49952,-3.8284 4.99647,-5.99434 3.89724,-0.64939 -0.50964,3.79641 0.9993,6.99338 z m -12.99084,26.97447 c -4.44784,-0.78425 -1.96759,5.35794 -5.99574,4.99529 -0.12693,-1.79331 1.22413,-2.10702 0.99928,-3.99622 -2.92193,0.40761 -3.24171,3.41876 -4.99646,4.99527 -2.9919,-0.65738 0.95632,-2.13697 0,-3.99623 -2.26941,0.72832 -2.9879,3.00516 -3.99718,4.99529 -3.38062,-2.15396 4.04613,-4.92135 0.99929,-6.9934 -2.01457,1.31477 -3.38061,3.27991 -3.99718,5.99434 -3.02485,-1.22184 0.70651,-3.8124 0.9993,-4.99527 -0.65754,-2.99318 -2.1355,0.9541 -3.99718,0 -0.29079,-9.03446 -0.1539,-18.4965 -2.99789,-24.97638 10.31873,-1.96114 19.77704,-1.11693 34.9753,0 -0.047,9.39112 -0.69252,23.12712 -7.99436,21.9792 -1.62784,2.03508 -2.09851,5.22706 -3.99718,6.9934 -2.92792,-0.83921 0.59958,-3.21697 0,-4.99529 z m -19.98587,-48.95367 c -0.31778,-2.31681 0.16188,-3.83637 0.99929,-4.99527 1.62885,-0.16985 2.01858,6.5338 -0.99929,4.99527 z m 3.99718,8.99149 c -1.28809,3.70549 -3.89326,6.09822 -6.99507,7.99244 2.14849,-2.8473 3.26771,-6.72364 6.99507,-7.99244 z m -2.99789,-1.99811 c 0.045,3.04112 -2.10951,3.88531 -2.99788,5.99433 -3.26169,-1.73435 -2.39331,-7.59781 -3.99718,-10.9896 3.12779,0.86917 5.51611,2.47766 6.99506,4.99527 z m 15.98871,11.98866 c -2.71508,0.004 -4.68069,-4.20103 -5.99576,0 -2.99188,-0.65739 0.95633,-2.13698 0,-3.99622 -4.1181,-0.78825 -1.87768,4.78248 -5.99577,3.99622 0.016,-2.98118 2.59817,-3.39679 2.99789,-5.99433 -4.21003,0.45258 -4.79163,4.53271 -6.99507,6.99338 -1.7018,-3.40279 2.33635,-9.62789 7.99436,-8.99149 0.48366,-4.47977 -2.69111,-5.30199 -4.99647,-6.99338 0.59958,-5.92639 -1.75277,-8.90358 -0.9993,-14.98582 -3.03085,1.96514 -4.90253,5.08917 -4.99647,9.99053 -5.42416,-0.77625 -1.93464,-7.00137 -0.9993,-9.99053 -3.14078,-0.14488 -3.43357,2.56157 -3.99716,4.99526 -4.53581,-1.5685 0.81141,-4.25098 0,-7.99244 -3.23172,-1.23483 -0.76346,3.23194 -3.99718,1.99811 -0.80043,-3.46571 1.48895,-3.84035 0.99929,-6.99338 -3.61046,-0.28073 -2.28539,4.37486 -3.99718,5.99433 -3.14078,-1.70538 1.12021,-7.00937 -0.99929,-7.99244 -1.97361,0.69034 -2.66413,2.66448 -2.99789,4.99529 -2.57618,-1.37171 -0.22083,-6.12122 0,-7.99245 -3.05484,-0.96209 -4.28997,4.90736 -2.99788,4.99527 -3.23772,2.70245 -3.10881,-4.18504 -1.99859,-6.99338 -2.63514,-0.3047 -2.57617,2.08603 -2.99787,3.99622 -2.95493,-1.75035 0.57758,-5.32296 0,-7.99244 -4.249,-0.58544 -0.74749,6.57877 -4.99649,5.99433 -0.80043,-3.46573 1.48895,-3.84037 0.99931,-6.99338 -3.22672,-0.89515 -1.40301,3.25892 -2.9979,3.99623 -3.02086,-1.51259 0.82943,-4.38586 0,-6.9934 -3.03084,-0.36665 -2.07453,3.25393 -2.99787,4.99528 -3.89524,-0.92712 -1.19216,-6.25609 0,-7.99244 -2.77705,-2.79336 -2.79702,2.27284 -3.99718,3.99622 -3.03486,-1.23183 1.08323,-3.43576 0,-5.99433 -3.75935,-0.76128 -0.68852,5.30499 -4.99646,3.99622 0.79843,-1.86723 1.6708,-3.65955 1.99859,-5.99433 -2.63316,-0.30171 -3.27869,1.38368 -2.9979,3.99622 -4.21003,-1.24683 0.096,-4.09613 0,-6.99338 -2.16847,-3.06112 -1.59486,4.98527 -4.99646,3.99622 0.52462,-3.14003 1.75275,-5.57472 2.99787,-7.99244 -5.28325,-1.61947 -1.94162,5.3839 -5.99577,4.99527 -0.26779,-3.59859 1.84671,-4.81545 1.99859,-7.99245 -4.8056,-1.47559 -0.91934,5.74057 -4.99646,4.99529 -0.8434,-4.17405 1.94362,-4.71854 1.99859,-7.99245 -1.47395,-2.04905 -3.53051,3.72847 -3.99718,5.99434 -16.68321,-9.78174 -0.52264,-30.08054 13.99013,-22.97827 4.69367,2.29684 10.13883,7.66075 14.98941,11.98867 3.53051,3.14901 6.61032,7.93748 9.99293,10.9896 12.75699,11.50512 27.47061,19.7653 35.97459,27.97354 -2.62914,2.36475 -7.95537,2.03705 -9.99293,4.99526 4.91652,-0.039 16.49833,-4.70056 18.98658,3.99623 -15.93374,-1.6025 -18.67781,20.95416 -8.99365,27.97353 1.22915,-0.4376 2.05356,-1.27779 1.99859,-2.99717 11.87061,0.54449 14.09903,-8.54991 19.98588,-13.98676 -2.60816,10.71984 -11.85163,14.796 -20.98517,18.98204 z m -33.976,-16.98393 c 0.82941,-2.50163 2.73806,-3.92429 2.99788,-6.99338 2.19844,1.61845 -0.34976,6.90347 -2.99788,6.99338 z M 232.8543,94.689814 c 2.48026,-3.056111 4.06912,3.191979 7.99436,1.998109 -0.87039,-4.125098 -5.00046,-4.99028 -9.99295,-4.995274 -0.25382,-5.189091 6.26559,-2.375753 7.99436,-0.999056 4.02015,-4.769487 -0.88437,-8.711757 2.99788,-11.988657 -0.15989,-1.170892 -1.82072,-0.842203 -2.99788,-0.999054 0.24182,-1.757339 1.71978,-2.276848 3.99718,-1.998111 0.46667,-2.131981 -1.427,-1.903199 -2.99789,-1.99811 0.098,-2.56757 3.90126,-1.428648 3.99717,-3.996218 -0.43567,-1.482598 -1.27809,0.394626 -2.99787,0 -0.70051,-3.6985 4.27198,-1.72337 4.99646,-3.996219 0.18188,-3.830376 -0.8174,-0.362658 -2.99787,-0.999055 0.68352,-2.98118 3.97918,-3.348832 7.99436,-2.997165 -0.4237,2.088025 0.68552,2.645497 0.99928,3.99622 3.4156,-3.127042 8.45103,-9.243255 12.99083,-7.992439 -2.06454,3.263911 -7.34482,3.313866 -7.99434,7.992439 2.40229,3.764438 5.60902,-7.06032 6.99505,-0.999055 4.79161,-4.567679 9.92698,1.367705 14.98941,-0.999056 2.37932,11.893747 5.36922,22.639582 1.99859,31.969754 -4.38191,0.517511 -3.28069,0.311706 -6.99505,0.999056 0.38471,2.612528 3.20472,2.79036 1.99859,6.993397 2.05353,-0.27876 1.99459,-2.66849 2.99787,-3.996232 -1.53792,-0.528502 -0.062,-1.042015 0.99929,-0.999056 2.45928,13.144558 -14.16399,22.026168 -26.98093,13.986778 -0.4487,6.79556 13.03779,4.92433 13.9901,6.99338 -16.16257,2.50563 -19.27738,-8.0334 -23.98305,-16.98394 -1.90465,0.42561 -1.80773,2.8543 -4.99646,1.99811 0.54961,-5.53776 -1.50895,-8.473982 -4.99649,-9.987549 z m 19.9859,-36.965029 c 1.78174,-2.54759 4.57476,-4.086134 8.99364,-3.996218 -1.77874,2.547588 -4.57676,4.085134 -8.99364,3.996218 z m 30.97811,53.945955 c 3.65742,1.33874 5.41018,4.58168 6.99507,7.99245 -2.08853,-0.42261 -2.64414,0.68534 -3.99718,0.99906 -0.46667,3.13204 2.51423,2.81634 3.99718,3.9962 0.65553,10.25832 -2.51423,13.84891 -3.99718,19.98112 3.98518,0.98705 3.00987,-2.98618 6.99505,-1.99811 -0.64754,-1.01704 -2.29738,-1.03404 -1.99859,-2.99718 1.18117,1.14892 3.53251,1.12994 5.99577,0.99906 -6.62032,2.95419 -11.94856,10.54902 -18.98659,9.99054 2.68211,-8.91955 -6.01176,-11.52009 -4.99646,-18.98203 1.47795,-2.05307 3.86427,3.39478 6.99505,2.99716 0.76146,4.23399 -1.8407,11.8308 1.99859,12.98771 4.08712,-10.56999 1.99859,-24.03725 0.99929,-35.96598 z m 0,54.94803 c -5.76193,-1.8982 -8.42404,-6.89649 -12.99083,-9.99056 7.32484,-5.48481 15.95873,-2.36775 12.99083,9.99056 z m -2.99788,-34.96692 c -3.92923,-2.39874 -6.06171,-6.59376 -9.99295,-8.99151 2.21944,-4.1081 7.00306,-5.65464 8.99365,-9.99053 2.04855,6.00431 2.57819,11.2893 0.9993,18.98204 z m -7.99436,-1.99811 c -1.2631,-1.40168 -5.27128,-0.057 -3.99718,-3.99622 2.5482,0.11988 3.87727,1.45862 3.99718,3.99622 z m -25.98164,-10.9896 c 6.97708,1.01704 10.64047,5.34694 19.98587,3.9962 0.38473,7.84759 -6.75722,11.90576 -4.99646,17.983 4.56677,-0.098 4.17706,-5.14914 4.99646,-8.99149 4.15307,3.91829 3.96021,10.63794 1.99859,16.98392 0.021,2.97618 4.71567,1.2808 5.99577,2.99718 -18.17616,8.08235 -14.80953,-21.51265 -21.98446,-30.9707 -3.15378,-0.48854 -3.52851,1.8003 -6.99508,0.99905 -0.69449,4.35787 7.56266,-0.23379 5.99577,4.99527 -1.15319,-1.1489 -9.07958,-1.1489 -3.99718,0 -2.9769,3.55264 -5.03343,-2.22688 -3.99718,-5.99432 0.80943,-0.85919 2.73808,-0.58945 2.9979,-1.99811 z m 5.99577,11.98865 c 0.62855,3.97525 3.8083,10.61896 4.99646,16.98393 -7.45374,-1.87323 -8.51199,-10.14041 -12.99082,-14.98582 3.14778,-1.04901 4.21703,-4.16605 7.99436,-1.99811 z m 45.96752,48.95369 h 2.99789 c 1.46896,2.91725 -4.46685,2.91725 -2.99789,0 z m 16.988,48.95368 c -4.32294,-1.50657 0.45869,-6.26207 -0.99929,-10.9896 4.42287,-1.57351 6.02074,-5.97134 11.99153,-5.99434 -2.95792,6.37398 -9.85303,8.80167 -10.99224,16.98394 z m 14.98942,-12.98771 c 2.73006,4.4318 -1.49295,10.4681 -7.99436,8.99149 0.74947,-4.90536 7.28485,-4.03617 7.99436,-8.99149 z m -6.99507,-22.97825 c 3.15178,3.17498 4.3879,8.26718 7.99436,10.9896 3.08981,-2.66148 6.19662,3.6805 7.99435,-0.99907 2.63514,2.37875 -1.79573,6.14019 -1.99859,8.99149 -9.75312,-3.01713 -13.55043,-10.69987 -13.99012,-18.98202 z m -18.98658,-21.97921 c 0.74348,2.25285 5.60504,0.39062 7.99436,0.99905 -2.80303,7.90851 3.3956,12.47219 1.99858,21.9792 -4.03015,-4.29493 -10.44762,-6.20512 -12.99082,-11.98864 1.92465,-1.94017 4.02016,1.04998 6.99506,0.99904 1.19016,-2.63651 -4.80361,-2.57757 0,-2.99716 -2.35733,-4.68856 -8.5,0.55647 -13.99011,-0.99906 1.37801,-3.61758 7.37978,-2.61252 11.99152,-2.99716 -1.88966,-5.7166 -11.19109,1.30577 -12.99083,-0.99906 0.16189,-1.1619 -0.22084,-1.77733 -0.99928,-1.99812 4.9345,-2.7264 10.07687,-5.24503 12.99082,-9.99053 4.0951,2.23388 9.86204,2.79436 11.99152,6.99338 -2.47824,-3.30688 -8.08428,0.85919 -12.99082,0.99906 z m -17.98729,-0.99906 c 1.28408,-6.79656 0.21885,-11.48813 -1.99859,-16.98394 3.00787,-2.65548 5.3752,-5.95037 10.99223,-5.99431 0.72849,2.7264 -1.98459,2.01009 -1.99859,3.9962 4.9635,3.03015 17.23183,-1.24281 18.9866,4.99529 h -6.99506 c -2.79802,5.22505 -6.69528,15.22559 -18.98659,13.98676 z m 5.99577,-30.9707 c -0.23784,-5.30399 3.71237,-0.21779 5.99575,-2.99717 0.17588,-2.83931 -6.53638,1.20786 -4.99647,-2.99716 h 5.99577 c -0.11093,-2.55258 -3.34563,-1.98312 -5.99577,-1.99811 0.18188,-3.15001 3.28669,-3.3748 6.99506,-2.99716 -0.45268,-3.79241 -5.3692,0.84919 -5.99575,-3.99622 2.3943,0.60443 4.55877,1.43665 7.99434,0.99904 -1.28608,4.70856 -2.5572,9.4331 -3.99718,13.98678 z m 0.99928,-15.98489 c 0.4427,-4.67557 5.67599,-2.34278 8.99365,-1.99809 0.38873,-4.05018 -6.2276,-1.10097 -8.99365,-1.99811 -1.00128,-1.33074 -1.64683,-3.01515 -2.99787,-3.99622 1.15717,-3.97325 6.26357,0.45855 10.99223,-0.99907 3.05484,1.54456 -4.33494,0.88019 -5.99577,0.99907 1.21814,2.77836 6.13866,1.85523 9.99295,1.99811 -0.79645,1.86723 -1.66883,3.65953 -1.99859,5.99431 z m 7.99436,-44.954458 h 2.99788 c 2.5472,3.522665 -0.77844,8.082353 -1.99859,10.989602 -3.97719,-1.156906 0.45967,-6.262076 -0.99929,-10.989602 z M 215.8663,157.62728 h 3.99718 c -1.43998,-1.55653 -4.02415,-1.97214 -2.99787,-5.99433 h 5.99574 c -6.59332,-0.6514 1.01131,-4.53472 -4.99646,-2.99718 0.11491,-5.11315 3.30866,-1.35971 6.99505,-1.99809 1.43501,-4.7635 -7.42875,0.76726 -5.99574,-3.99622 h 6.99505 c -0.12491,-2.20693 -4.239,-0.42561 -5.99577,-0.99907 1.2691,-7.02635 2.83599,-11.25634 13.99013,-8.99149 -4.62573,-2.92822 1.65683,-0.79925 2.99787,-2.99716 -0.12491,-2.20592 -4.239,-0.4246 -5.99577,-0.99906 1.88968,-3.10607 6.12668,-3.86635 9.99295,-4.99527 -2.22544,3.89431 -0.23584,8.55891 3.99718,5.99433 -0.8684,1.46162 -1.49495,3.16601 -3.99718,2.99716 1.31107,6.01531 7.87145,6.78259 8.99364,12.98771 -1.72877,-1.19186 -6.12467,-1.8852 -3.99718,-3.99622 -3.70636,0.70734 -4.28797,-1.70738 -7.99433,-0.99905 0.72647,2.93622 3.11478,4.21102 6.99505,3.99623 -2.17247,2.48963 -7.88145,1.44462 -8.99364,4.99526 -2.47726,-2.18693 -2.24444,-7.08131 -5.99577,-7.99244 -1.37404,2.10202 1.33104,6.80456 2.99787,8.99149 -0.92734,3.40079 -2.79902,5.85946 -1.99859,10.9896 -2.9779,0.35167 -6.08371,0.57646 -6.99505,2.99718 1.45198,2.96019 3.89724,-1.31677 6.99505,0 3.34763,8.9735 12.02251,12.62405 16.988,19.98109 -8.0493,-0.54149 -13.08276,4.35289 -17.98728,-0.99906 0.62255,-2.70843 4.17504,-2.48664 3.99718,-5.99432 -4.28797,-0.29073 -3.28469,4.70654 -6.99508,4.99527 -2.81001,-2.93022 1.57489,-4.29693 2.9979,-5.99433 -2.10553,-2.36176 -5.90783,2.02708 -6.99508,3.99622 -3.91123,-0.9441 0.20088,-4.86239 2.9979,-4.99527 -4.6707,-2.30981 -7.44575,5.85346 -13.99013,4.99527 1.65883,-6.46389 2.25841,-14.3764 3.99718,-22.97825 z m 24.98236,31.96974 c -0.4357,1.22783 -1.2781,2.05105 -2.99787,1.99811 -0.46967,-2.12799 1.42898,-1.8982 2.99787,-1.99811 z m 2.99787,122.88375 c -2.13147,0.46656 -1.90265,-1.42865 -1.99858,-2.99717 -5.39619,-1.40068 -5.29526,2.69645 -8.99365,2.99717 -2.30138,-3.36082 -8.54097,-2.78336 -12.99082,-3.99622 -1.46597,-5.46384 2.5492,-5.44385 3.99718,-7.99245 1.89665,2.99118 7.03202,-0.45855 4.99646,2.99718 6.69829,-1.44764 8.33212,-0.26875 14.98941,-0.99906 -0.8194,2.23987 -4.07712,7.1812 0.99931,6.99338 0.09,-1.77733 4.84458,-6.58977 0.99928,-5.99432 0.12492,-2.20692 4.23901,-0.4256 5.99577,-0.99906 1.15919,7.15322 -4.06712,7.9225 -7.99436,9.99055 z m -19.98587,-15.98489 c -11.4779,-15.54229 2.1235,-40.15 -1.99859,-59.94328 3.48354,-1.06998 7.43375,-2.77838 6.99505,-4.99528 -2.57217,-3.14901 -4.76663,2.49365 -8.99364,0.99906 2.35733,-3.97125 9.22349,-3.43476 10.99223,-7.99244 -4.92252,1.07098 -7.68257,4.30792 -12.99082,4.99529 2.18647,-5.80852 12.70403,-3.28591 13.99013,-9.99056 -4.18606,-0.50152 -8.43906,7.52987 -16.988,5.99433 0.17985,-4.07016 4.6727,-1.29977 6.99505,-1.99811 4.89455,-1.47361 10.23277,-5.55875 7.99436,-9.99055 -3.50354,-2.26585 -4.18306,5.3949 -7.99436,5.99433 -7.93039,3.88832 -21.69967,-7.79163 -22.98377,-12.98771 -4.241,-17.16076 15.63496,-30.75791 29.97882,-20.98016 8.60494,5.86545 11.77469,22.16704 13.99013,35.96598 1.63584,10.17838 0.29079,21.40974 0.99928,31.96976 0.82343,12.27338 2.09653,24.11217 12.99085,25.97541 2.18044,-1.1509 6.46442,-0.1988 6.99505,-2.99716 -1.14419,6.73962 5.82789,16.66624 1.99859,22.97827 -13.46049,-1.51856 -29.56912,-0.39964 -41.97036,-2.99718 z m 26.98095,-76.92721 c -2.1335,2.46466 0.28079,-3.173 0.99928,-3.99622 2.1385,-2.46767 -0.27979,3.177 -0.99928,3.99622 z m 7.99434,2.99716 c 1.92464,1.66743 1.2781,9.2123 0,10.9896 -2.94691,-0.71632 -6.18663,-1.14192 -7.99434,-2.99716 2.9779,-2.34778 6.09568,-4.56568 7.99434,-7.99244 z m -7.99434,21.9792 c 1.55389,2.18393 6.53638,2.75241 7.99434,0 2.2874,7.95748 7.48871,21.6835 2.99789,31.96976 -2.49423,-0.69034 1.85368,-2.66548 0.99929,-4.99527 -2.92194,0.40761 -3.2417,3.41877 -4.99647,4.99527 -2.80702,-1.60248 2.16647,-3.73447 1.99859,-5.99433 -4.02015,-0.69035 -2.45326,4.20703 -5.99577,3.99622 0.39973,-2.59854 2.9819,-3.01315 2.9979,-5.99434 -4.11811,-0.78825 -1.87768,4.78248 -5.99577,3.99623 3.72036,-5.85846 -1.2761,-2.61752 1.99859,-7.99243 -0.65755,-1.34174 -2.1355,-1.86125 -3.99718,-1.99811 0.16788,-5.82849 -1.74277,-9.57894 -0.99931,-15.98489 1.7088,0.05 2.58817,-0.73929 2.9979,-1.99811 z m 33.976,67.93574 c 0.12491,-2.20692 4.239,-0.4256 5.99577,-0.99906 -0.11993,2.2079 -4.23702,0.4296 -5.99577,0.99906 z m 7.99436,-4.99529 c -3.99518,0.3317 -5.54709,-1.7813 -9.99295,-0.99904 -0.37973,-7.1932 13.67034,-3.44674 9.99295,0.99904 z m 26.98092,-0.99904 v -4.99527 c 1.86768,-0.79825 3.65942,-1.67043 5.99577,-1.99811 -0.48365,4.66557 -1.68081,6.99738 0.9993,9.99054 -3.76735,0.43958 -4.68669,-1.96815 -6.99507,-2.99716 z m 25.98166,0.99904 c -2.90595,3.31888 -9.93398,7.06532 -15.98871,3.99623 0.1369,-2.86228 6.86016,0.86219 6.99505,-1.99811 -2.9729,-1.02402 -5.55807,-2.4357 -8.99364,-2.99716 2.56019,-2.57557 1.2741,-3.8184 3.99718,-6.99338 h 10.99223 c 0.65954,3.00715 3.8373,3.4867 2.99789,7.99242 z m 26.98093,-107.8979 c -1.2671,9.31119 -14.02708,19.18284 -18.98659,31.96974 -3.11679,8.03741 -5.26728,16.93699 -5.99575,23.97731 -1.50494,14.57921 5.57205,37.43958 -11.99153,40.96125 -10.57054,2.119 -19.96989,-3.77543 -28.97953,0 -2.71309,0.71434 0.71449,-4.71154 -1.99859,-3.99622 -2.41829,1.95616 -1.93463,8.17627 0.9993,9.99056 3.74934,-0.78426 -2.62914,-6.18516 1.99859,-4.99527 v 14.98582 h -5.99577 c 12.55313,-10.38817 -15.35416,-18.34265 -26.98095,-11.98867 -4.13408,2.25987 -4.31894,5.94537 -4.99646,11.98867 -6.74125,-1.85225 0.60656,-6.49385 -1.99859,-10.9896 2.67611,2.07103 4.75064,-0.004 2.99787,-2.99718 6.60235,-1.05998 10.92429,-4.39783 15.98872,-6.99338 5.71895,1.2758 8.29313,5.69561 14.98941,5.99434 -0.33376,-5.99434 -8.94469,-3.71149 -10.99223,-7.99245 -2.65414,-0.011 -5.70698,0.37664 -6.99507,-0.99904 1.29209,-12.22843 -4.63373,-22.05714 -4.99647,-31.96976 -0.084,-2.29684 1.74477,-1.33274 1.99859,-2.99716 1.13619,-7.46195 -4.06512,-20.62849 -4.99646,-28.9726 -0.98131,19.33171 0.86637,45.97451 6.99505,63.93952 -1.24712,2.4157 -4.09511,3.23094 -6.99505,3.9962 0.30877,-2.35576 3.47054,-1.85924 2.99787,-4.99527 -4.59676,0.73131 -5.21131,5.44485 -7.99436,7.99245 -3.46254,-4.50775 2.34435,-8.28118 3.99718,-10.98961 -1.49494,-2.70045 -4.17105,1.72936 -4.99646,2.99716 -2.02158,-4.71354 4.91452,-9.05343 5.99577,-13.98676 -5.00448,-0.008 -3.56948,6.41992 -7.99436,6.99338 2.63514,-4.02719 4.96349,-8.35909 6.99505,-12.98771 -4.18105,0.14785 -4.17905,4.47877 -5.99577,6.99338 -2.76904,-4.14208 2.5532,-8.74173 3.99718,-11.98865 -1.56089,-3.07009 -3.47754,1.73436 -3.99718,2.99716 -3.08581,-3.80241 3.97421,-5.97934 3.99718,-9.99056 -2.2604,-2.19391 -3.71836,4.89138 -6.99505,4.99529 0.68752,-4.64162 3.42157,-7.23516 4.99646,-10.9896 -1.56089,-3.0701 -3.47754,1.73435 -3.99718,2.99715 -3.19474,-3.26191 2.17647,-6.43291 2.9979,-8.99149 -1.0033,-2.51363 -4.41888,0.79425 -3.99718,2.99716 -3.54451,-3.61158 1.82671,-6.78258 2.99787,-8.99149 -1.76274,-1.85124 -3.09381,0.25676 -3.99717,1.99811 -2.05354,-1.79929 3.03286,-4.90336 2.99789,-7.99244 -3.72638,-1.06199 -1.58089,3.74646 -4.99648,2.99717 0.32778,-3.33685 1.71779,-5.60969 3.99717,-6.99338 -0.65752,-2.99317 -2.13547,0.9541 -3.99717,0 1.87168,-2.45868 3.48753,-5.17311 5.99576,-6.9934 -2.01856,-3.22294 -3.47754,2.42172 -5.99576,1.99812 0.45469,-4.20902 4.72666,-4.59964 5.99576,-7.99243 -1.49494,-2.70045 -4.17105,1.72936 -4.99646,2.99716 -2.07253,-3.44574 4.53179,-6.76159 5.99577,-9.99056 -1.98461,-2.56157 -4.72667,2.53262 -5.99577,3.99622 -3.25969,-3.97622 1.15319,-8.79967 2.99787,-10.9896 -9.06958,-6.37495 -4.70567,17.00891 -12.99082,17.983 3.28069,-8.32814 -1.34704,-6.40194 2.9979,-12.98771 -5.42019,2.57155 -6.31756,9.66784 -8.99367,14.9858 -2.32835,-7.00935 5.70698,-12.26538 6.99508,-18.98202 -4.85558,2.13796 -6.06773,7.91951 -7.99436,12.98771 -4.57876,-5.12715 5.46913,-11.45417 5.99577,-17.983 -4.91654,1.74435 -3.95221,9.36915 -8.99367,10.9896 1.26713,-6.06025 5.84189,-8.81265 6.99508,-14.9858 -4.99049,1.33672 -3.58148,9.0724 -8.99366,9.99053 1.14221,-4.52071 5.22131,-6.10322 5.99576,-10.9896 -1.96759,-1.5775 -4.02615,5.25503 -5.99576,6.99338 -2.80103,-3.84635 4.33294,-6.29204 4.99648,-9.99054 -3.90124,0.095 -3.95621,4.03717 -5.99577,5.99434 -1.77374,-3.8054 4.36791,-8.2652 8.99364,-8.99151 7.90842,8.07836 20.80331,11.17244 23.98308,23.97731 0.90535,2.91824 3.67939,0.28873 3.99716,1.99811 0.36675,2.90727 1.50494,7.46595 0,10.98961 3.50353,0.82622 6.61834,2.04107 8.99366,3.99622 2.76205,-0.23577 0.35874,-5.63767 3.99718,-4.99527 0.11291,3.70549 -4.64173,5.84946 -1.99859,8.99149 1.34104,-0.65737 1.86168,-2.13699 1.99859,-3.99622 3.44257,19.53651 5.04543,40.9113 6.99505,61.94141 0.90337,1.76132 2.23442,3.09306 3.99718,3.9962 0.55661,-3.28589 0.2698,-11.5061 -0.9993,-15.98487 3.18875,-0.85619 3.09183,1.57153 4.99648,1.99811 41.91539,2.7454 26.30142,-46.3991 37.97317,-72.93099 5.58605,-0.92313 5.22831,4.09811 10.99224,2.99716 0.80643,-0.85919 2.73805,-0.59444 2.99787,-1.99811 -0.8494,-5.05024 -4.92452,-0.93313 -7.99434,-2.99716 -9.69416,-8.59888 -2.33835,-24.81153 9.99293,-23.97732 6.76523,0.45956 14.55973,8.49197 12.99082,19.9811 z m 1.99859,-33.96788 c 1.09124,-2.23987 4.90655,-1.75632 5.99577,-3.99622 2.5682,1.99811 -3.20772,4.05617 -5.99577,3.99622 z m 7.99436,-15.98487 c 0.82743,-2.92523 12.09147,-5.34993 11.99154,0 z m -1.99859,-2.99715 c -2.48823,-0.40663 -0.059,-3.87334 1.99859,-2.99718 0.54961,2.2179 -1.90865,1.42865 -1.99859,2.99718 z m 5.99577,-8.99151 c 0.4317,-2.23388 4.92452,-0.40561 6.99505,-0.99905 -1.63883,1.2788 -5.41616,2.58755 -6.99505,0.99905 z m 9.99295,6.9934 c -2.46326,0.13086 -4.81461,0.14985 -5.99577,-0.99907 0.02,-1.51856 7.40478,-2.18793 5.99577,0.99907 z m 0.99928,-5.99434 h -1.99859 v -1.99811 h 1.99859 z m 3.99718,0 h -1.99859 v -1.99811 h 1.99859 z m -3.99718,-4.99527 c -2.65411,-0.011 -5.70696,0.37665 -6.99505,-0.99906 1.72577,-3.93728 4.79161,-6.53382 6.99505,-9.99056 -2.38532,-1.01304 -6.65329,4.64062 -7.99434,7.99245 -3.65742,-1.81529 2.04554,-7.78963 -0.9993,-8.99149 -3.52851,1.46662 -2.36932,7.62178 -2.99788,11.98866 -0.88837,0.77526 -2.2564,1.07299 -3.99717,0.99905 2.23641,8.1483 -7.18393,10.81178 -10.99224,15.98487 2.3813,3.27191 4.03613,-2.54858 5.99575,-2.99716 2.27141,1.06499 -2.86896,3.03013 -1.99859,5.99434 3.14278,-3.04512 5.49413,-0.66737 10.99225,-0.99907 1.05226,4.38086 -3.37862,3.28091 -2.99789,6.99338 -12.20239,2.06405 -21.38889,11.42821 -30.97811,15.98489 -11.98554,5.69361 -30.3206,-14.34942 -41.97035,-15.98489 1.31007,-3.35382 8.0743,-1.2528 5.99575,-7.99242 2.60916,-0.38964 5.48212,-0.51352 6.99506,-1.99812 -1.54591,-3.159 -5.99776,1.25081 -6.99506,-0.99906 1.45598,-2.54058 6.05972,-1.93615 6.99506,-4.99527 -6.77621,-0.9481 -11.77867,8.08236 -22.98376,5.99433 6.35251,-26.28412 16.43739,-48.83879 25.98164,-71.931945 13.84022,7.477925 27.25176,15.381446 41.97036,21.979204 1.87568,1.905201 -0.59358,1.808291 0,4.995271 2.50423,0.17185 2.42629,-2.23687 3.99718,-2.99716 16.23654,0.5355 35.74774,2.45967 48.96541,1.99812 -4.01715,13.62711 -17.8474,17.45348 -22.98377,29.97164 z" />
	<path
   style="fill:#008080"
   id="path106"
   d="m413.06 100.55c1.013 0.067 1.973 0.13 2.868 0.189-0.97-0.05-1.93-0.11-2.87-0.19z" />
	<path
   style="fill:#008080"
   id="path108"
   d="m153.32 266.08c0.015 0.007 0.028 0.012 0.043 0.019v-0.001c-0.01-0.01-0.02-0.01-0.04-0.02z" />
	<path
   style="fill:#008080"
   id="path110"
   d="m153.32 297.02c-0.118-0.641-0.156-1.362-0.151-2.126-0.01 0.76 0.03 1.48 0.15 2.13z" />
	<path
   style="fill:#008080"
   id="path112"
   d="m153.42 273.25c-0.06 1.21-0.178 2.478-0.231 3.681h0.001c0.05-1.2 0.17-2.47 0.23-3.68z" />
	<path
   style="fill:#008080"
   id="path114"
   d="m222.32 174.08c1.496-0.287 7.225-1.287 4-3-0.91 0.96-6.9 4.54-4 3z" />
</g>
<metadata
   id="metadata118"><rdf:RDF><cc:Work><dc:format>image/svg+xml</dc:format><dc:type
         rdf:resource="http://purl.org/dc/dcmitype/StillImage" /><cc:license
         rdf:resource="http://creativecommons.org/licenses/publicdomain/" /><dc:publisher><cc:Agent
           rdf:about="http://openclipart.org/"><dc:title>Openclipart</dc:title></cc:Agent></dc:publisher><dc:title>hotel service</dc:title><dc:date>2009-10-12T00:48:21</dc:date><dc:description>old clipart from a pre-1925 ad</dc:description><dc:source>https://openclipart.org/detail/27769/hotel-service-by-johnny_automatic</dc:source><dc:creator><cc:Agent><dc:title>johnny_automatic</dc:title></cc:Agent></dc:creator><dc:subject><rdf:Bag><rdf:li>drink</rdf:li><rdf:li>externalsource</rdf:li><rdf:li>man</rdf:li><rdf:li>relax</rdf:li><rdf:li>service</rdf:li><rdf:li>sitting</rdf:li><rdf:li>travel</rdf:li><rdf:li>waiter</rdf:li></rdf:Bag></dc:subject></cc:Work><cc:License
       rdf:about="http://creativecommons.org/licenses/publicdomain/"><cc:permits
         rdf:resource="http://creativecommons.org/ns#Reproduction" /><cc:permits
         rdf:resource="http://creativecommons.org/ns#Distribution" /><cc:permits
         rdf:resource="http://creativecommons.org/ns#DerivativeWorks" /></cc:License></rdf:RDF></metadata></svg>
